<mxfile host="Electron" agent="Mozilla/5.0 (Windows NT 10.0; Win64; x64) AppleWebKit/537.36 (KHTML, like Gecko) draw.io/24.7.8 Chrome/128.0.6613.36 Electron/32.0.1 Safari/537.36" version="24.7.8">
  <diagram name="Page-1" id="AovWOaxX2VPS4I-mx0er">
    <mxGraphModel dx="1232" dy="1187" grid="1" gridSize="10" guides="1" tooltips="1" connect="1" arrows="1" fold="1" page="1" pageScale="1" pageWidth="850" pageHeight="1100" math="0" shadow="0">
      <root>
        <mxCell id="0" />
        <mxCell id="1" parent="0" />
        <mxCell id="P_a2NYIgK35H7U3AfFkj-1" value="" style="shape=image;verticalLabelPosition=bottom;labelBackgroundColor=default;verticalAlign=top;aspect=fixed;imageAspect=0;image=data:image/png,iVBORw0KGgoAAAANSUhEUgAAAaMAAABGCAYAAABha/txAAAAAXNSR0IArs4c6QAAAARnQU1BAACxjwv8YQUAAAAJcEhZcwAADsMAAA7DAcdvqGQAAA/tSURBVHhe7Z1fjBRFHsd/K5EL4TTx5F588pYd9vZwEh/YKBgvpxLWWecCZuPoixBzgYVDF3bj5jBBYw4SSJbwTzldiKfwJGs4IRl3AcGXiwtmeSAZuWV3ltXcg4m5HCSIwdPgXv2qq2e6e7tnumd7pqtnvh9S2e6a7uqqX1X9fvWn6V/TjRs3Z06d+gcBAAAAUVEwRs8++6yKqg4ff/xx1Z8BAAAgntiM0b333quiw+fo0aO0bt06daYf33zzDd2av0idgXpiyaL56ghwO3/ggQfUWeMCOegF18dd6hgAAACIDBgjAAAAkQNjBAAAIHL0NkZT+2nFiv00pU7rjumD9HzqIH2tTkFEjHRTU1OTDN0jKq4Rqff+FiW1km3Yz6k0vQru08MYNVongBHSiBHq7szRvvwMzeT3UW5HgHbYaO3Wi3qUQz3XrZ+y+S1/iHLSwxi1bKXR0a3Uok7rnuYeOj7SQw+qUxAhUxOUoyS1cuNrtHYIgBd++0KIfUa/mREfqyWTpkQvXZAXaADPZn79C2qV4XH6YFrFpf5Mb6SM+DfOT9EHhWPjtq/ffVzd47wPM6PoEbMi2cYOU6fZ5rgdqva4v5vjusVV3CxXFJby5DXi3/614t4LvZQQcSv2e4wNbWkZwVwKtKXZtIJkEvL6bupeYV4rnlM4Nu6z9RHzvpBxzZszvm7l4FImj2d5yUm2rUK8yHPWiM26lN81bZu8jDboifV+q850zfPssnnL38eMx3qdVz58otmekaEcksMzNDNjLJssV79Ey2l645GrtPk//6MJDl88RyOblTG5lKPmQyLuwz/R8RdeIjKP9xi/P7jxn8Y9HD5M0q5Dp/kuoAUpGuQ2tnwf5Z3tTXTW8TXcDgcpJTrZ2t4kDfM1IgwnxykvxoJbjxXvHd1aYmxYSEuE4Q10WC0FtmwdNeJkfJJ6B5TKuZCjtmPq2s61ROaxvI/7yDi9bt6Xz9DQWh9KIyCueWsYOTjLlPd8lnve2XB2khBU4bfBtIh2LX+JcljbIJ+74qUzvdKdXV+e8g+EVz78o5cx4iUTIaR+b8lHw/QkTdB7tN6c4TzST5cvXaV/82/LnqM/NIu/v/ktPWw95t8Y64zqhfeI/jWJGVEcsLbDllZKytmTMUJNDZZSDi5Y00q0FTupdSTZeZgoN2EooeUZSrNO52utx/ybXFa0zOR4BHqBjULIuOWtEeXAlHqWW96nsjRELnrMrfyl0vajC710ZhD5eMk/CF75CIBmMyONWTZAZ8wZjgx/o9+rnzxhQ/TIR5T6Qt3zxUDRSIEYIWZQcuS4hk7KTltm2cQPrAASQ5ThFyeCjiRFp5czuUIIaBTK4Zm3BpODFbdnzSXvVqpVDj/phlWGENDLGPHI68IQZZVZnsoO6bFn1LyEWi/109/VPlAgzNmS4OuzH9Fl4xDECdFhu+VCOivjPO1bnqMJc+g4l9G4OdoX+G7rso/0UkUrKUFwy1ujycEsU6lnueW9JU0Z8pm3uZbDS2eWS9daX5XI34lXPgKg2cxINHJes0wYU8a148nIrLSdp+mvYlYz8YJabuPg5wWE5h7a/Lt+6lD3/CWfxMwojoiOJhqlsYzRlKChzDGSWyMtW+n1DcZSiOfGvRd8b7JXbiIHa+uij4jRa67TuE8GPxvNQfDKWyPJwVamhPuzPPNu7MtYrzdfYJjNXMvhpTNLpGstWzZdofydeOXDP/hQqgIfSq1f8KHUIvhAqAHkoBf4UCoAoTFie5W3GKyv+zYCkEN1iFqu1X8+jBEAoZBSm/vOMGosZTUMkEN1iFqu1X8+jBEAAIDIgTECAAAQOYUXGAAAAICowNt0AAAAIgfLdAAAACIHxggAAEDkwBgBAACInJLG6Pbt2/TDDz/Qzz//rGLALKrlspo/YBj2Z16CEPXzdcFX/Rr/ITDU+gegwSg7M3rllVfo+vXrdOfOHRUTNqIj66j0fCljkXfTZfXMDA0mgirw2f+reU4KLQwDUvdGqOikrfw3wPzV70i34btmsGqfjK4ududqFXxfrq7QVB81AGWN0fT0NL322mt048aN0A2S0Qk66bA614oWH+50pc8Q5bI6KKz0m3ZQm/npdhny1LYjYmXgp9yxpoW2jgpZ5318Kt9n/aYG422IEkMZi6uBPGXGsw2pjLXWRw2Arz0jNkg9PT109epV+umnn1Ts3JEeBv0ohVpjLs2YIyRpOMyRo/ktJjGCYodVpgMrdpHs01Wx+IH2r2UvjKOUzlpHpQPUOiqUwdCASN2gvJti06eMw51wd7cYxZd221y5u2H7jE6m55YnmVYZ19E64FpPc6nfuDBCA71E+45ZBx/CWA+qc7c6ZTzKbWtPMZxdaKuPGgTfLzB8++23coY0OTlJP/74o4qtU1KDlkbJSsnNfW9KfqK94LJ6dJAGfboqpqksjWf6He6s2T8M/9hC6UyOTvIn54Xic3dTXHTvm9+Xo06p2R3uhPvbxP2l3DarziefzfF+3Q2zQXG4VE555UlQJg/RU4X6jQvSO2fRl40drzr1kJetLZsuyQHwj29jxHz//ffSIN28eTPUGZLWBHHfa6XUfflx8ZtieRsl1KFJS2vSOBCKz9VNsSW+JZ2h5YdPChXhgqlo3Nw2M9YRrl93w24ulUvlqVweoqYa9RtLirNWOavxqlOvcrNzNRlvzKACuyQHDU8gY7Rw4ULatWuX/FLD3XffrWIbADUaliNBGXx2NK/7hDJW5sbucVEh+ju1taqTasGGSBN3w5ETdv3GBZt3zgB7aa7lNr/qHKJLctBQ+DZGpiFKJBI0f34DOSuTHTaAW2DTuJS6T3rMHKARi8dF9pzZe8E4Tgy1Udo5XTJxpCvd+25YU1SCQUbnliWakm6C5QxKKRc3l8rl8qQjYnbqyz2zEz/1GxtS1L9PNEW35UWvOvUqt2gjni7JAfCBL2PU3NxMb731FrW2toZqiOSGp5zm98pNYa02tQsYewe+3AJb3fl6uSqWF4o0h0kuaYieaxlhqlDybTZ7fhK8Tm++ymV9/sC4EecFX1uRu2EXl8ojJfKkFSPFFy/4lW25cV+N+o0PvG+YzwwV2gH3R8qkZ8mlWKce8hJGytUleYyIhz6qX0p+KJX/0yu/Rcczovvuu4/mzZunfglO7D6Uym/U7WijfFVfc2blaH2VdAMNx22pBwAAQqDszCgMQxQv1Oi5MHKuJmKUaZsVwRABABqTksZowYIFtGjRogYyRIxpIOAmGQAAaoVtme7WrVsqOnw+/fRT+DMCAADgSk2d6/2x60V1ph+/+uVddP0WPghbb6Be7UAeBpCDXnB9BPp/RgAAAEA1gDECAAAQOTBGAAAAIgfGyI1rB6jjyQM0rU61J+r8xk1ewB+oV1BDojNG3NDvmUf3q9BxCN8OKc0I9VnkxaHvrPqpEsJQNHFTVo42N2cZ1gnThx6zyWRWX6y0nuPUPhxtA/qo9kRojMZp6Yk79N/vOGRp6bZ19M419RuwIzvKTkpcNuXFYYISuyPuNIu30JnPtlCzOo0F7XtpzJTh5b10ZXdjj/zZELWfyBRlIvtiq71dVVrPcWof0EeRE50xWvUu7V2ljilBiXZ1qA3j9PaT5kjpMaNhqpHeOz0ct5HO8WW2EZXbdUaQI3CveMaWjkpbMkXvrB+n/u8+p47T1hHsHkp8NkFrTuwpXHvGd7qcZh9dGuujdhHf0bNR5Gsj9any9p0VvxeO5Q2O0bO9nKWVuX1GV5BDIc4ixzJ5CB2hgC49tISaVTlqW686MEJvbyPaecRqMFK0VxhpOvFJsV5V+aZlWaxl4LotLy95n0O+ru0pSrTXR/WPHntG1z6hk5ShjsXqXAfGcpQ4YoyUxnYTbV+vlK5Q4Pk0x79LK7kzPsyGQo2oLmfo5KzrRDixno6aI3DXeE6nrzAyG9udo+d71FcahWzyXa/SStGhN21L0nH5rAnaKTtLC3V05Wj4tDgMlG4LbTqyl5apWcKZLW3F8vK9XeuIzGOV7+bNnxtpy/STtP2An69IskFJC8Wm7hNh76oSZS2Th1BQBlgqQSG7nVvUB5hqXa86cG2SrrS79LvFS2jp2PhsmYuZTv9LR2jYNLRnT9HRl1aXlpeJTb6VtqcaoaM+agA0MEbckIdojW10pgGWTtr8dIaWmZ1TKPCXzREUd2Y6Qs+byk0onktu1y1uo2Xq0DVeKoVivHze+6fUiHNcPEPR3jZLRs0J5RkpaLpOzPLyvdZj+aPAOvLtOkL05eRsZeVEdmpLvphSeSqXhzAQzy4u01mUplV+tajXmLIyLQxt1jAc57LKmJeSl4lVPkwl7akmaKqPGoCIjZGoeLkX8jltUoo/dohOVlxv52CM/EJDKLal6pBcRqvTeaKEl++jsGDFwR3U3LO6LGZV6qdY4zUDYKpdrzogyz9EZ5xLZNKIzh74SFa9Sju/ZIM6QsNfFgdsgeSlbXuqA30UYyJ8gYFHRvGo+OnTQ3RJLkc4kJ25j96e656GIx3b88RvtG0PnVNLJMbos5W2jxnH7SfaigrBSal0GS9F7IZlpijTMQ5nI+tV7SMsfobWkEM+5fJUS3iZyU3p1qJetSBFL1uXoCU8M+gj6nrGY2agloZ7TtEV85pK5OW3PdWKGOmjeiUyY2Q0wIu0/WE1VRdBq9cpRecy9xbk20YH3Zw7GJu9V7qKZbifN2zVr/6xp9POe0OF54nfTpAwPBuJDlpHniqUfFupRLoW49ZxoIwjPr72oaI8Nk0kfY5kjb0pq3z6zpYqaw2w1Ov9XUTHXeVXi3rVA967GesaKsrkHmOP78xm70/W83LjlfeJ+gvXBJRXxe2pemivjxoAfChVof+HE3kJIU1H1RnRejpej0tHIYMPYtqBPAwgB73Ah1JjhRh92mZFMEQAgPoBxggAAEDkwLkeAACAyKnpntFXX32lzsLlzTffVEdzI6x0nFQrXeAP1KsdyMMActALLNMBAACInEiMkXXkYB6Xi2Oc59WiXF7c4hjnOdCLcnXoFsc4z+uFcmV3i2Oc53GnXJnd4hjnOZgbkc2MdK9INLT6BPVqB/IwgByiJ1JjpHMD0D1/oDJQr3YgDwPIIXoi3TPSvfLROOsT1KsdyMMAcoiWQMbo9u3bthAm3BCswaTcea0wn+t8frlzoDdmfTnrrdx5vWKW01necuf1hlk+ZznLnYPK8f1qt2l8enp65N+DBw/KvwsWLJB/y4FXu0FUoF7tQB4GkINe+J4ZXbx4kdLptDojecxxAAAAwFzxNTPiWdH58+fp3LlzlMvlZFwymaSVK1fSU0895Wt2xDMjfIEBAACAG5G+wAAAAAAwvowRz3wWLlwoZ0U8I+LAxxznd88IAAAA8ML3zOiJJ56gbDZLq1evloGPOQ4AAACYK4GW6XgW9Oijj8qAGREAAICwCLxnxEYIhggAAEB4EP0fb7LhUi5NRAQAAAAASUVORK5CYII=;" parent="1" vertex="1">
          <mxGeometry x="290" y="350" width="419" height="70" as="geometry" />
        </mxCell>
        <mxCell id="P_a2NYIgK35H7U3AfFkj-2" value="" style="shape=image;verticalLabelPosition=bottom;labelBackgroundColor=default;verticalAlign=top;aspect=fixed;imageAspect=0;image=data:image/png,iVBORw0KGgoAAAANSUhEUgAAAMsAAABJCAYAAACTg9LgAAAAAXNSR0IArs4c6QAAAARnQU1BAACxjwv8YQUAAAAJcEhZcwAADsMAAA7DAcdvqGQAAAo1SURBVHhe7Z1faBRJGsC/rCiIt4K3PvmomZXgDuzDBpzskzGYm1wOI4HZp1MW3Jlb9oxJuMAKCsIJCgtOlF12J3lY49sGxBFyM7drvLdNhPggjDKaidEXBZFT9IyK/+bqq66adHe6Z2qS6enqzPeDIl1fV1d/XVVff1Uz9U2aFhZeFoEgiIo0nTt3joyFICpw4MABw1j27dsnRN5w8eJF8PoeBOElGzduXDQWzHjF2NgYt0xdefDgAWzZskXkgkWQdQ8Kso0/EHmCICpAxkIQipCxEIQi+hrL3DC0tQ3DnMj6RrV6uJX343lU77kS3fx4Lp/w31gaqLF9ox5t3AD96L+xNPfD1FQ/NIss4QH1aOMG6Ee9PAseNzVBE6bQAEzzAnowkRB6sZTICqFZ36YESDFAHr5rk/I2GC69bp3kczDMZKU6WS0JyzU1QLax+Dvs9CySbGJRN8vzmXRy6qdq7hFQNFqzsEHCGj6cKUKxyFIhCRFxxnemByDfI/TKxGHkn2jcVn0LyRx0yVExnYOW81IOMLBfvAwc5c3Qf4zVmRbXZtMwEj8G/V69oh2fRYADvQsgU5xi98fny8MxLIepEINxrq9CP5W7R4DRx1jmbkMukoShqMjrhFmvUIsxOGz6NnfHIDKSNrxLJAbdYrBz+XQeCphxk0d7IC6uzaZHIN7jYSM4PQvCBniIG0cK+Gl8PhiBLrMHQX1V+sntHgFHI8/SyEShJz4C6WwW0iNx8NJWXGEDPGP2jgiTFaRn4UkYUoOij7E0b4fw9DhMCH89NzGu1ZplCVzfAfhOjC2ub7xnyWBSlUeHkpDr6oJccsi3ARnqn4IMdEEbLk5sz1ciaP1UQzTyLFFIZcIwEDLc/v58WHP3zfRl8/Vcl6FvaCAMmZQY5jilEdOX0HgMCpXkSHM3xCIRiMl5mk9EUxkID4SYwYQsz8cT/yAmaP1UQ3Aj5dOnT5mX9Q68h87cv39fHPlIJl5k054im/ZUhRa6r3JkG9OaRRP4wv4Yfd+kM2QsmhBNFcE8KyP0g4yFIBQhYyEIRSgGnyAUsMTgN3JYMUGoQNMwglCEjIUgFCFjIQhFXI3l5cuX8OrVK3j//r2QEBwZtyGyJdzkusLjVowtK6sl3sRrynqWQ4cOwePHj+Hdu3dCUmuykNBtgOGgl3uhzIMpKMagpCdr964cJAvGbuJUKGCG7hNljWV+fh6OHDkCT548qbnBzA23sYHYBSMirxXmrem4mRCDl4ISNquiJ49VCcN22ltTFRXXLGgwfX19cOvWLXjz5o2Qrpzm/im9oiHdKORhOrwdmi1vbLewYYHFO9U4RLgccmol9XTUw4h0nJaBXW0JSOzHwC5jRzTfnq+qv6Uc1uV0X1O4tUu9xotTyDX2cEoL/IcPH3IPMzs7C69fvxbSVYxpK30TTlfsYYFuYcMct3DcOhBNmV5AbnoYoQUR6T2nUpA6v5if6i8o6m8Y3dLwYqt8MdzaRR9mQPsxvEHIM2ERPaohSsaCLCwscIN59uxZTT2MllimYQ6DxS08GHELxxWn68Zy9ShzndkDtCXSzuHFtrDjUri1W70YTMblhgeKpvSNxlQ2lg0bNsDJkyf5N/1r164V0gaARwZWOdjNxsaTTwNguXq4XMenzkI21cMcrFFaHcd6mafjxz2Q5oZk/pUcvVAyFmkooVAI1q1bJ6QNAv7aSqQFQiJrZ0nYsFs4br2pVg/5QlC9Dn9kwxReXMJ2fal93Opl07AEX7yg0RQgGcnB7brMWZeBW6Tkixcviu3t7cWDBw8W7927V2RTL3GmepwiJQvJCG7gLKU4m7RqQSFZZHNvk27xIlcN5RjJaD8voxvleXnsVKYeqOhhLiPIxI0ykSSTquqP0Z1O5SzXi/ZDHOvNFOMmGb+/ppQ1FjSUR48eFd++fSuky8PJWAiPWGZ48orB+2rzxvOGstMwnHpt2rQJ1qxZIySEvmQhgXN+/PTufH2+D8qafnWyCX+cb5WHeroay/r162Hz5s1kKIFBLpTx1ySFyGMwFJq9cE2L9dVNKZ7l+fPnQlR7Ll++TPEsROCpW/DXX3r/KnL68cc/fACPnwdzw2iQdQ8K2MaI8vcsBNHokLEQhCJkLAShCBlLtdw5A53tZ2BeZEu4yeuJDjpUQ8D09cdYsJE+XAMfidT5g0b7G2y6YRr8TciDNBCDxHLbts594pOx5GHHhXfw3/9hmoAd3x6AH++IczrQehpmuG4sXT8NN0+xDtl2GH79z2HYKooQNWS5bVvnPvHHWPb8BKf3iGMIQahVHOoIM+xrn3wMWy1vsTx83y49z+dLDd3inRzOe4qDbkL3H/tQ9jeYxGJOOlrKGcnsVZfIEUs9om4nypUT9c/zMuZzWRhU0JdfZ3u++R8+F2VN5VeI/2uWO/+CNMSgc5vI68DMILTKhu7NwYnDtu+mZ3IQGjU8z8wpgKNfmacCrIM/zcNQyTPFIG057zFuurFnKnSj/CfoKKdjqRxLF76CMfSqrnKsZ7A0S5g5lYMv+py2KyuWY55i6MtRyEhD/O0SjH25t7y+EsvzAWz95nejLKYLYTh6ptI26sr4bCzYCOPQM6rZ9MYyDXPomNZF4976pxh8NpNfPH9nFm7CKHwhjY0Nkmvm817jpht7pr9Lb15OR3O5bS3wmTh0lGM9Jjm/38+XlrzZO/suuZaz09HNDHHCGNiTE+JFpdKmZv0QsyfqHQW4MbviPvDRWJihfHgCQtd/h6918ip2tn0MO6od7KzjSsbGk/G20wqPdTS/2X893CKkCuz5B5y4gYaUhcwN04yjGn3RUPAlfF2UZevOktGvAJ8W+Gj1ATAUBKcCrS2unm/+3+NwjU8VBNy4BuF7OZXwkSW6SWqlo60e1fu5luM0Qyeb+mbQG/X+2Wj35ehr8rD8fsbhivDFWAzlr8LRT4WbZEmrj49ZxyyuWQB+sX/iYjrfeiEGM2fNa5oonMZP0HoXn+0jXISKs55TVjdJrXS01tP6bRh+UbifezkDnKbd/Blg6Bu5fbpKfXHt88liO3x9O1wTz0IbKRm0kZIoB22kJIgqIWMhCEUo+IsgFKnbmuXu3bsiV1uOHz8ujlZGreqx41W9ZoKse5CgaRhBKFJ3YzG/reRxJRliz3tFJV2cZIg97weV9HSSIfY84YwvnkX3zgny4KGB7x2+GYvOnaq7fuUIsu6649uaRfcODfKAI2PxBmVjwf8xaU61RL4NZZJUytcLeV/7/SvldUDqZNetUp5YitJHx9I48D+AIWfPnuV/8VcrVaCPjr0lyLoHCSXPcvXqVeju7hY54McoI4hGoqJnQa9y5coVmJychFwux2XhcBg6Ojpg9+7dSt4FPQt9g08EHd8W+AQRNCoaC3oO/M9f6FXQo2DCY5SprlkIYjWg5Fl27doFExMTsHfvXp7wGGUE0UgoT8PQi+zcuZMn8ihEI1LVmgWNhAyFaFRogU8QilDwF0EoAfB//GQg061KGX4AAAAASUVORK5CYII=;" parent="1" vertex="1">
          <mxGeometry x="770" y="459" width="203" height="73" as="geometry" />
        </mxCell>
        <mxCell id="P_a2NYIgK35H7U3AfFkj-3" value="" style="endArrow=classic;html=1;rounded=0;strokeWidth=2;strokeColor=#ff0000;" parent="1" edge="1">
          <mxGeometry width="50" height="50" relative="1" as="geometry">
            <mxPoint x="690" y="380" as="sourcePoint" />
            <mxPoint x="770" y="490" as="targetPoint" />
            <Array as="points">
              <mxPoint x="730" y="380" />
              <mxPoint x="730" y="490" />
            </Array>
          </mxGeometry>
        </mxCell>
        <mxCell id="P_a2NYIgK35H7U3AfFkj-4" value="Table: teacher" style="text;html=1;align=center;verticalAlign=middle;resizable=0;points=[];autosize=1;strokeColor=none;fillColor=none;fontStyle=1" parent="1" vertex="1">
          <mxGeometry x="290" y="320" width="100" height="30" as="geometry" />
        </mxCell>
        <mxCell id="P_a2NYIgK35H7U3AfFkj-5" value="Table: teacher_detail" style="text;html=1;align=center;verticalAlign=middle;resizable=0;points=[];autosize=1;strokeColor=none;fillColor=none;fontStyle=1" parent="1" vertex="1">
          <mxGeometry x="770" y="429" width="130" height="30" as="geometry" />
        </mxCell>
        <mxCell id="8fdWa2ipQoD6aO6Nfy_g-1" value="" style="endArrow=none;html=1;rounded=0;strokeWidth=2;strokeColor=#FF0000;" edge="1" parent="1">
          <mxGeometry width="50" height="50" relative="1" as="geometry">
            <mxPoint x="324.25" y="380" as="sourcePoint" />
            <mxPoint x="674.75" y="380.5" as="targetPoint" />
          </mxGeometry>
        </mxCell>
        <mxCell id="8fdWa2ipQoD6aO6Nfy_g-2" value="" style="endArrow=none;html=1;rounded=0;strokeWidth=2;strokeColor=#FF0000;" edge="1" parent="1">
          <mxGeometry width="50" height="50" relative="1" as="geometry">
            <mxPoint x="800" y="490" as="sourcePoint" />
            <mxPoint x="960" y="490" as="targetPoint" />
          </mxGeometry>
        </mxCell>
      </root>
    </mxGraphModel>
  </diagram>
</mxfile>
